<?xml version="1.0" standalone="no"?>
<!DOCTYPE svg PUBLIC "-//W3C//DTD SVG 20010904//EN"
 "http://www.w3.org/TR/2001/REC-SVG-20010904/DTD/svg10.dtd">
<svg version="1.0" xmlns="http://www.w3.org/2000/svg"
 width="260.000000pt" height="260.000000pt" viewBox="0 0 260.000000 260.000000"
 preserveAspectRatio="xMidYMid meet">
<metadata>
Created by potrace 1.14, written by Peter Selinger 2001-2017
</metadata>
<g transform="translate(0.000000,260.000000) scale(0.100000,-0.100000)"
fill="#000000" stroke="none">
<path d="M1002 2448 c-9 -9 -12 -159 -12 -615 0 -659 1 -644 -58 -706 -83 -88
-219 -88 -306 -1 -44 44 -56 84 -56 179 0 130 8 125 -175 125 -182 0 -175 4
-175 -117 0 -288 130 -469 385 -539 39 -11 117 -18 223 -21 l162 -5 0 -289 c0
-275 1 -289 19 -299 29 -15 354 -13 369 2 9 9 12 86 12 283 0 202 3 275 13
287 10 14 47 17 272 21 279 5 314 10 424 63 65 32 158 117 200 183 41 64 71
171 78 271 14 221 -90 422 -265 513 -126 66 -149 70 -449 75 l-273 4 0 287 c0
210 -3 290 -12 299 -8 8 -64 12 -188 12 -124 0 -180 -4 -188 -12z m884 -925
c182 -97 176 -353 -10 -439 -48 -23 -62 -24 -256 -24 -147 0 -209 3 -218 12
-16 16 -17 430 -1 459 10 20 19 20 227 17 202 -3 220 -5 258 -25z"/>
</g>
</svg>
